<svg width="80" height="80" viewBox="0 0 80 80" fill="none" xmlns="http://www.w3.org/2000/svg">
<rect width="80" height="80" rx="40" fill="#FDEB24" fill-opacity="0.26"/>
<path d="M29.584 56.7187V37.9167H32.9173C33.1604 37.9167 33.4034 37.9431 33.6465 37.9958C33.8895 38.0486 34.1326 38.109 34.3757 38.1771L48.8027 43.5417C49.2888 43.7153 49.6798 44.0278 49.9757 44.4792C50.2715 44.9306 50.4187 45.3993 50.4173 45.8854C50.4173 46.6146 50.1652 47.2049 49.6611 47.6562C49.1569 48.1076 48.5757 48.3333 47.9173 48.3333H42.4486C42.275 48.3333 42.1451 48.325 42.059 48.3083C41.9729 48.2917 41.8597 48.2479 41.7194 48.1771L38.3861 46.875L37.709 48.9062L41.7194 50.3125C41.7888 50.3472 41.893 50.3736 42.0319 50.3917C42.1708 50.4097 42.2923 50.4181 42.3965 50.4167H56.6673C57.7784 50.4167 58.7506 50.816 59.584 51.6146C60.4173 52.4132 60.834 53.4028 60.834 54.5833L44.2194 60.8333L29.584 56.7187ZM17.084 60.8333V37.9167H25.4173V60.8333H17.084ZM45.209 31.6667H47.2923V29.5833H45.209V31.6667ZM41.0423 31.6667H43.1257V29.5833H41.0423V31.6667ZM45.209 35.8333H47.2923V33.75H45.209V35.8333ZM41.0423 35.8333H43.1257V33.75H41.0423V35.8333ZM53.5944 44.1667C53.1083 43.0208 52.4138 42.0139 51.5111 41.1458C50.6083 40.2778 49.4972 39.6007 48.1777 39.1146L33.7507 33.75H29.584V28.5417L44.1673 18.125L58.7506 28.5417V44.1667H53.5944Z" fill="#FDB824"/>
</svg>
