<svg width="80" height="80" viewBox="0 0 80 80" fill="none" xmlns="http://www.w3.org/2000/svg">
<rect width="80" height="80" rx="40" fill="#FDEB24" fill-opacity="0.26"/>
<path d="M40 19.1665C37.2373 19.1665 34.5878 20.264 32.6343 22.2175C30.6808 24.171 29.5833 26.8205 29.5833 29.5832C29.5833 32.3458 30.6808 34.9954 32.6343 36.9489C34.5878 38.9024 37.2373 39.9998 40 39.9998C42.7627 39.9998 45.4122 38.9024 47.3657 36.9489C49.3192 34.9954 50.4167 32.3458 50.4167 29.5832C50.4167 26.8205 49.3192 24.171 47.3657 22.2175C45.4122 20.264 42.7627 19.1665 40 19.1665ZM23.3333 60.8332H56.6667C57.8125 60.8332 58.75 59.8957 58.75 58.7498V56.6665C58.75 48.6248 52.2083 42.0832 44.1667 42.0832H35.8333C27.7917 42.0832 21.25 48.6248 21.25 56.6665V58.7498C21.25 59.8957 22.1875 60.8332 23.3333 60.8332Z" fill="#FDB824"/>
</svg>
